<svg width="36" height="34" viewBox="0 0 36 34" fill="none" xmlns="http://www.w3.org/2000/svg">
<rect opacity="0.01" width="35.1498" height="34" fill="#222222"/>
<rect opacity="0.01" width="35.1498" height="34" fill="#222222"/>
<path fill-rule="evenodd" clip-rule="evenodd" d="M29.9066 14.4217L18.6147 3.2584C18.3397 2.99021 17.9654 2.83936 17.5749 2.83936C17.1844 2.83936 16.81 2.99021 16.535 3.2584L5.24318 14.4359C4.69126 14.9741 4.38531 15.7037 4.39372 16.4617V28.3334C4.39137 29.8393 5.60728 31.0839 7.16177 31.1667H27.988C29.5425 31.0839 30.7584 29.8393 30.756 28.3334V16.4617C30.7572 15.7009 30.4526 14.9694 29.9066 14.4217ZM14.6457 28.3334V19.8334H20.504V28.3334H14.6457ZM23.4332 28.3334H27.8269V16.4617L17.5749 6.2759L7.32288 16.4051V28.3334H11.7166V18.4167C11.7166 17.6343 12.3723 17.0001 13.1812 17.0001H21.9686C22.7775 17.0001 23.4332 17.6343 23.4332 18.4167V28.3334Z" fill="#222222"/>
</svg>
