<svg width="36" height="34" viewBox="0 0 36 34" fill="none" xmlns="http://www.w3.org/2000/svg">
<rect opacity="0.01" width="35.1498" height="34" fill="#222222"/>
<path fill-rule="evenodd" clip-rule="evenodd" d="M17.5753 15.5833C20.8107 15.5833 23.4335 13.0463 23.4335 9.91667C23.4335 6.78705 20.8107 4.25 17.5753 4.25C14.3398 4.25 11.717 6.78705 11.717 9.91667C11.717 13.0463 14.3398 15.5833 17.5753 15.5833ZM17.5753 7.08333C19.193 7.08333 20.5044 8.35186 20.5044 9.91667C20.5044 11.4815 19.193 12.75 17.5753 12.75C15.9575 12.75 14.6461 11.4815 14.6461 9.91667C14.6461 8.35186 15.9575 7.08333 17.5753 7.08333ZM7.32324 28.3333C7.32324 22.8565 11.9132 18.4167 17.5753 18.4167C23.2373 18.4167 27.8273 22.8565 27.8273 28.3333C27.8273 29.1157 27.1716 29.75 26.3627 29.75C25.5538 29.75 24.8981 29.1157 24.8981 28.3333C24.8981 24.4213 21.6196 21.25 17.5753 21.25C13.5309 21.25 10.2524 24.4213 10.2524 28.3333C10.2524 29.1157 9.59668 29.75 8.78782 29.75C7.97895 29.75 7.32324 29.1157 7.32324 28.3333Z" fill="#222222"/>
</svg>
